<svg width="185" height="130" viewBox="0 0 185 130" fill="none" xmlns="http://www.w3.org/2000/svg">
<g clip-path="url(#clip0_1750_1507)">
<path fill-rule="evenodd" clip-rule="evenodd" d="M147.17 79.77H184.52L174.58 92.82L184.52 105.31H147.17V87.79H161.96L147.17 79.77Z" fill="url(#paint0_linear_1750_1507)"/>
<path d="M92.12 0.169922C57 0.169922 28.45 28.7399 28.45 63.8399C28.45 98.9399 57 127.51 92.12 127.51C127.24 127.51 155.79 98.9599 155.79 63.8399C155.79 28.7199 127.22 0.169922 92.12 0.169922ZM92.12 124.76C58.54 124.76 31.2 97.4199 31.2 63.8399C31.2 30.2599 58.54 2.92992 92.12 2.92992C125.7 2.92992 153.01 30.2599 153.01 63.8499C153.01 97.4399 125.7 124.77 92.12 124.77V124.76Z" fill="url(#paint1_linear_1750_1507)"/>
<path fill-rule="evenodd" clip-rule="evenodd" d="M71.97 19.36L66.66 11.45L63.68 13.45L64.74 17.22L64.89 17.7L65.32 19.19L65.44 19.67L65.87 21.11L66 21.59L66.05 21.74L66.02 21.76L65.89 21.66L65.49 21.36L64.33 20.45L63.95 20.12L62.74 19.18L62.36 18.85L61.05 17.84L60.67 17.54L59.25 16.43L56.29 18.43L57.45 20.15L57.73 20.53L58.64 21.9L58.89 22.28L59.72 23.54L60 23.92L60.81 25.11L61.06 25.52L61.44 26.1L62.83 28.15L65.08 26.63L63.59 24.38L63.13 23.72L62.88 23.34L62.07 22.15L61.82 21.75L60.99 20.54L60.94 20.46L60.99 20.43L61.04 20.48L62.25 21.39L62.65 21.69L63.81 22.57L64.21 22.87L64.89 23.4L67.22 25.17L68.74 24.16L68.01 21.43L67.73 20.42L67.6 19.94L66.66 16.45L66.71 16.43L69.49 20.57L70.91 22.67L73.19 21.15L71.95 19.36H71.97ZM114.14 10.51L110.4 18.65L109.24 21.15L111.72 22.29L112.86 19.79L113.29 18.88L113.49 18.45L114.07 17.16L114.15 16.98L116.63 11.64L114.15 10.5L114.14 10.51ZM116.83 18.75L115.97 19.89L115.69 20.27L115.16 21L113.72 22.95L115.92 24.57L117.49 22.42L117.97 21.76L118.25 21.38L119.11 20.24L119.39 19.86L120.28 18.67L120.3 18.64H120.35V18.72L120.15 20.42L120.1 20.95L119.9 22.59L119.85 23.15L119.77 23.96L119.42 27.14L121.6 28.76L123.14 26.66L123.44 26.26L123.72 25.86L124.58 24.72L124.86 24.34L125.77 23.13L126.05 22.75L127.01 21.46L127.29 21.06L128.58 19.34L126.38 17.72L125.24 19.26L124.96 19.64L124 20.93L123.72 21.34L122.83 22.53L122.55 22.91L122 23.64L121.97 23.61L122.07 22.52L122.15 21.94L122.33 20.2L122.41 19.64L122.61 17.79L122.66 17.24L122.91 15.14L120.71 13.52L119.55 15.11L119.25 15.49L118.31 16.78L118.01 17.16L117.13 18.37L116.85 18.75H116.83ZM98.34 6.20997L96.72 15.16L96.24 17.74L103.8 19.11L104.18 17.04L99.3 16.16L99.43 15.53L99.84 13.31L103.88 14.04L104.26 11.97L100.21 11.24L100.64 8.75997L105.52 9.64997L105.9 7.59997L98.34 6.22997V6.20997ZM84.81 6.28997L85.31 15.4L85.46 18L89.76 17.75C91.13 17.67 92.26 17.17 93.12 16.21C93.47 15.83 93.75 15.42 93.95 14.97C94.25 14.29 94.35 13.53 94.33 12.67L94.2 10.57C94.12 9.17997 93.59 8.03997 92.61 7.20997C91.63 6.34997 90.46 5.96997 89.07 6.04997L84.8 6.29997L84.81 6.28997ZM88.05 15.09L87.65 8.20997L89.22 8.12997C89.83 8.09997 90.36 8.30997 90.79 8.78997C91.22 9.26997 91.45 9.89997 91.5 10.71L91.62 12.83C91.67 13.61 91.5 14.27 91.14 14.8C91.09 14.85 91.06 14.88 91.04 14.92C90.69 15.38 90.21 15.6 89.65 15.63L88.08 15.73L88.05 15.07V15.09ZM74.67 8.68997L74.49 18.27L74.46 21L77.19 20.16L77.16 17.78L80.5 16.77L81.81 18.74L84.54 17.88L83.05 15.76L77.44 7.81997L76.05 8.24997L74.66 8.67997L74.67 8.68997ZM77.12 11.83L77.17 11.8L79.29 14.96L77.14 15.62L77.11 11.83H77.12Z" fill="white"/>
<path fill-rule="evenodd" clip-rule="evenodd" d="M161.96 87.79L147.17 79.77V87.79H161.96Z" fill="white"/>
<path fill-rule="evenodd" clip-rule="evenodd" d="M37.37 79.77H0L9.96 92.82L0 105.31H37.37V87.79H22.56L37.37 79.77Z" fill="url(#paint2_linear_1750_1507)"/>
<path fill-rule="evenodd" clip-rule="evenodd" d="M22.56 87.79L37.37 79.77V87.79H22.56Z" fill="white"/>
<path fill-rule="evenodd" clip-rule="evenodd" d="M161.54 87.7898C116.63 71.6098 67.47 71.6098 22.56 87.7898V117.22C67.47 133.38 116.63 133.38 161.54 117.22V87.7898ZM58.49 111.17H63.02V92.3198H58.49V111.17ZM81.92 111.17H77.4L70.72 99.4398V111.17H66.18V92.3198H70.72L77.39 104.05V92.3198H81.92V111.17ZM84.79 92.3198V111.17H90.91C92.17 111.17 93.33 110.95 94.39 110.51C95.45 110.07 96.37 109.45 97.14 108.66C97.92 107.86 98.52 106.91 98.95 105.81C99.39 104.71 99.6 103.49 99.6 102.15V101.36C99.6 100.03 99.38 98.8098 98.95 97.6998C98.51 96.5898 97.91 95.6398 97.14 94.8398C96.37 94.0398 95.45 93.4198 94.38 92.9798C93.31 92.5398 92.14 92.3198 90.86 92.3198H84.79ZM89.33 107.67V95.8298V95.8198H90.86C92.19 95.8198 93.21 96.2798 93.91 97.1998C94.61 98.1298 94.96 99.4998 94.96 101.32V102.14C94.96 103.97 94.61 105.35 93.91 106.28C93.21 107.21 92.21 107.67 90.91 107.67H89.33ZM106.77 111.17H102.24V92.3198H106.77V111.17ZM113.55 111.17L114.64 107.65H120.86L121.96 111.17H126.84L119.88 92.3198H115.61L108.7 111.17H113.55ZM119.78 104.14H115.73L117.75 97.5998L119.78 104.14Z" fill="url(#paint3_linear_1750_1507)"/>
<path d="M135.33 31.1201L136.6 33.6201L139.38 34.0301L137.36 36.0001L137.84 38.7801L135.33 37.4701L132.86 38.7801L133.34 36.0001L131.31 34.0301L134.1 33.6201L135.33 31.1201Z" fill="url(#paint4_linear_1750_1507)"/>
<path d="M143.05 46.6997L144.69 50.0397L148.38 50.5597L145.73 53.1397L146.34 56.8097L143.05 55.0897L139.79 56.8097L140.39 53.1397L137.74 50.5597L141.43 50.0397L143.05 46.6997Z" fill="url(#paint5_linear_1750_1507)"/>
<path d="M143.05 65.3599L144.69 68.6699L148.36 69.1999L145.7 71.7999L146.34 75.4499L143.05 73.7299L139.76 75.4499L140.39 71.7999L137.74 69.1999L141.41 68.6699L143.05 65.3599Z" fill="url(#paint6_linear_1750_1507)"/>
<path d="M48.8 31.1201L47.56 33.6201L44.78 34.0301L46.81 36.0001L46.33 38.7801L48.8 37.4701L51.31 38.7801L50.83 36.0001L52.85 34.0301L50.07 33.6201L48.8 31.1201Z" fill="url(#paint7_linear_1750_1507)"/>
<path d="M41.09 46.6997L39.45 50.0397L35.78 50.5597L38.44 53.1397L37.83 56.8097L41.09 55.0897L44.38 56.8097L43.77 53.1397L46.43 50.5597L42.73 50.0397L41.09 46.6997Z" fill="url(#paint8_linear_1750_1507)"/>
<path d="M41.12 65.3599L39.47 68.6699L35.81 69.1999L38.46 71.7999L37.83 75.4499L41.12 73.7299L44.4 75.4499L43.77 71.7999L46.43 69.1999L42.76 68.6699L41.12 65.3599Z" fill="url(#paint9_linear_1750_1507)"/>
<path d="M73.96 71.9099H68.37V45.4599H63.54V39.5899L73.96 38.4299V71.9099ZM94.45 59.7899C94.45 63.7099 93.66 66.7899 92.15 69.0499C90.63 71.2699 88.61 72.3899 86.11 72.3899C83.61 72.3899 81.56 71.2799 80.02 69.0499C78.5 66.7999 77.74 63.7099 77.74 59.7899V51.0099C77.74 47.0699 78.5 43.9799 80.02 41.7599C81.54 39.5399 83.56 38.4199 86.06 38.4199C88.56 38.4199 90.59 39.5299 92.13 41.7599C93.67 44.0099 94.46 47.0999 94.46 51.0099V59.7899H94.45ZM88.88 50.5199C88.88 48.4999 88.63 46.9499 88.12 45.9199C87.64 44.8599 86.93 44.3299 86.05 44.3299C85.17 44.3299 84.48 44.8599 84 45.9199C83.52 46.9599 83.27 48.4999 83.27 50.5199V60.2499C83.27 62.3199 83.52 63.8699 84 64.9299C84.5 65.9699 85.19 66.4999 86.1 66.4999C87.01 66.4999 87.67 65.9699 88.15 64.9299C88.63 63.8699 88.88 62.3199 88.88 60.2499V50.5199ZM113.97 59.7899C113.97 63.7099 113.21 66.7899 111.69 69.0499C110.15 71.2699 108.15 72.3899 105.65 72.3899C103.15 72.3899 101.1 71.2799 99.56 69.0499C98.04 66.7999 97.28 63.7099 97.28 59.7899V51.0099C97.28 47.0699 98.04 43.9799 99.56 41.7599C101.08 39.5399 103.07 38.4199 105.6 38.4199C108.13 38.4199 110.13 39.5299 111.67 41.7599C113.21 44.0099 113.97 47.0999 113.97 51.0099V59.7899ZM108.43 50.5199C108.43 48.4999 108.18 46.9499 107.67 45.9199C107.16 44.8599 106.48 44.3299 105.6 44.3299C104.72 44.3299 104.03 44.8599 103.55 45.9199C103.07 46.9599 102.82 48.4999 102.82 50.5199V60.2499C102.82 62.3199 103.07 63.8699 103.55 64.9299C104.06 65.9699 104.74 66.4999 105.65 66.4999C106.56 66.4999 107.19 65.9699 107.7 64.9299C108.18 63.8699 108.43 62.3199 108.43 60.2499V50.5199Z" fill="white"/>
<path d="M116.29 52.46C116.29 51.75 116.52 51.14 116.97 50.69C117.43 50.21 118.08 49.98 118.94 49.98C119.8 49.98 120.48 50.21 120.94 50.69C121.4 51.15 121.65 51.75 121.65 52.46V53.09C121.65 53.82 121.4 54.41 120.94 54.89C120.48 55.34 119.83 55.57 118.97 55.57C118.11 55.57 117.45 55.34 116.97 54.86C116.51 54.41 116.29 53.8 116.29 53.09V52.46ZM118.06 53.09C118.06 53.37 118.14 53.6 118.29 53.8C118.44 53.98 118.67 54.08 118.97 54.08C119.25 54.08 119.48 53.98 119.63 53.8C119.78 53.6 119.86 53.37 119.86 53.09V52.46C119.86 52.18 119.78 51.95 119.61 51.75C119.46 51.57 119.26 51.47 118.95 51.47C118.67 51.47 118.44 51.57 118.29 51.75C118.14 51.95 118.06 52.18 118.06 52.46V53.09ZM122.01 59.24C122.01 58.53 122.24 57.95 122.69 57.47C123.17 56.99 123.83 56.76 124.69 56.76C125.55 56.76 126.23 56.99 126.69 57.47C127.15 57.93 127.37 58.53 127.37 59.24V59.87C127.37 60.6 127.14 61.18 126.69 61.67C126.23 62.12 125.58 62.38 124.72 62.38C123.86 62.38 123.18 62.13 122.72 61.67C122.24 61.19 122.01 60.61 122.01 59.87V59.24ZM123.8 59.87C123.8 60.15 123.88 60.37 124.05 60.58C124.23 60.76 124.46 60.86 124.71 60.86C125.04 60.86 125.26 60.78 125.39 60.61C125.52 60.43 125.57 60.21 125.57 59.88V59.25C125.57 58.97 125.49 58.74 125.34 58.57C125.19 58.36 124.96 58.29 124.68 58.29C124.4 58.29 124.17 58.36 124.02 58.57C123.87 58.75 123.79 58.97 123.79 59.25V59.88L123.8 59.87ZM119.35 61.29L118.06 60.63L123.93 51.22L125.24 51.88L119.35 61.29Z" fill="white"/>
</g>
<defs>
<linearGradient id="paint0_linear_1750_1507" x1="146.71" y1="92.54" x2="184.52" y2="92.54" gradientUnits="userSpaceOnUse">
<stop stop-color="#EC742F"/>
<stop offset="1" stop-color="#EA4B27"/>
</linearGradient>
<linearGradient id="paint1_linear_1750_1507" x1="26.8818" y1="63.84" x2="155.79" y2="63.84" gradientUnits="userSpaceOnUse">
<stop stop-color="#EC742F"/>
<stop offset="1" stop-color="#EA4B27"/>
</linearGradient>
<linearGradient id="paint2_linear_1750_1507" x1="-0.460222" y1="92.54" x2="37.37" y2="92.54" gradientUnits="userSpaceOnUse">
<stop stop-color="#EC742F"/>
<stop offset="1" stop-color="#EA4B27"/>
</linearGradient>
<linearGradient id="paint3_linear_1750_1507" x1="20.8484" y1="102.497" x2="161.54" y2="102.497" gradientUnits="userSpaceOnUse">
<stop stop-color="#EC742F"/>
<stop offset="1" stop-color="#EA4B27"/>
</linearGradient>
<linearGradient id="paint4_linear_1750_1507" x1="131.211" y1="34.9501" x2="139.38" y2="34.9501" gradientUnits="userSpaceOnUse">
<stop stop-color="#EC742F"/>
<stop offset="1" stop-color="#EA4B27"/>
</linearGradient>
<linearGradient id="paint5_linear_1750_1507" x1="137.609" y1="51.7547" x2="148.38" y2="51.7547" gradientUnits="userSpaceOnUse">
<stop stop-color="#EC742F"/>
<stop offset="1" stop-color="#EA4B27"/>
</linearGradient>
<linearGradient id="paint6_linear_1750_1507" x1="137.609" y1="70.4049" x2="148.36" y2="70.4049" gradientUnits="userSpaceOnUse">
<stop stop-color="#EC742F"/>
<stop offset="1" stop-color="#EA4B27"/>
</linearGradient>
<linearGradient id="paint7_linear_1750_1507" x1="44.6806" y1="34.9501" x2="52.85" y2="34.9501" gradientUnits="userSpaceOnUse">
<stop stop-color="#EC742F"/>
<stop offset="1" stop-color="#EA4B27"/>
</linearGradient>
<linearGradient id="paint8_linear_1750_1507" x1="35.6488" y1="51.7547" x2="46.43" y2="51.7547" gradientUnits="userSpaceOnUse">
<stop stop-color="#EC742F"/>
<stop offset="1" stop-color="#EA4B27"/>
</linearGradient>
<linearGradient id="paint9_linear_1750_1507" x1="35.6792" y1="70.4049" x2="46.43" y2="70.4049" gradientUnits="userSpaceOnUse">
<stop stop-color="#EC742F"/>
<stop offset="1" stop-color="#EA4B27"/>
</linearGradient>
<clipPath id="clip0_1750_1507">
<rect width="184.52" height="129.17" fill="white" transform="translate(0 0.169922)"/>
</clipPath>
</defs>
</svg>
