<svg width="18" height="22" viewBox="0 0 18 22" fill="none" xmlns="http://www.w3.org/2000/svg">
<path d="M14.5135 11.7731C14.524 10.961 14.7397 10.1647 15.1406 9.45834C15.5415 8.75197 16.1146 8.15849 16.8065 7.73312C16.3669 7.10537 15.787 6.58875 15.1129 6.22431C14.4388 5.85986 13.689 5.65763 12.923 5.63366C11.2891 5.46216 9.70505 6.61138 8.87243 6.61138C8.0237 6.61138 6.74175 5.65069 5.36131 5.67909C4.4684 5.70794 3.59818 5.96759 2.83546 6.43275C2.07273 6.89791 1.44351 7.55271 1.00909 8.33335C-0.872723 11.5914 0.530938 16.3797 2.33356 19.0132C3.23544 20.3028 4.28949 21.7433 5.66869 21.6922C7.01832 21.6363 7.52238 20.8316 9.1515 20.8316C10.7655 20.8316 11.2384 21.6922 12.6456 21.6598C14.0938 21.6363 15.0063 20.3644 15.8765 19.0626C16.5245 18.1438 17.0231 17.1282 17.354 16.0536C16.5126 15.6977 15.7946 15.1021 15.2895 14.3409C14.7843 13.5797 14.5145 12.6867 14.5135 11.7731Z" fill="white"/>
<path d="M11.8555 4.12689C12.6451 3.17897 13.0341 1.96059 12.9399 0.730469C11.7336 0.857175 10.6192 1.43374 9.8189 2.34529C9.42761 2.79061 9.12793 3.30868 8.93698 3.86988C8.74603 4.43109 8.66756 5.02443 8.70606 5.61598C9.30946 5.62219 9.90641 5.4914 10.4519 5.23347C10.9975 4.97554 11.4774 4.59718 11.8555 4.12689Z" fill="white"/>
</svg>
