<svg width="33" height="32" viewBox="0 0 33 32" fill="none" xmlns="http://www.w3.org/2000/svg">
<path d="M27.5827 13.0615L17.5827 23.0615C17.4433 23.2013 17.2777 23.3123 17.0954 23.388C16.9131 23.4637 16.7176 23.5027 16.5202 23.5027C16.3228 23.5027 16.1273 23.4637 15.945 23.388C15.7626 23.3123 15.597 23.2013 15.4577 23.0615L5.45768 13.0615C5.17589 12.7797 5.01758 12.3975 5.01758 11.999C5.01758 11.6005 5.17589 11.2183 5.45768 10.9365C5.73947 10.6547 6.12167 10.4964 6.52018 10.4964C6.91869 10.4964 7.30089 10.6547 7.58268 10.9365L16.5214 19.8752L25.4602 10.9352C25.742 10.6534 26.1242 10.4951 26.5227 10.4951C26.9212 10.4951 27.3034 10.6534 27.5852 10.9352C27.867 11.217 28.0253 11.5992 28.0253 11.9977C28.0253 12.3962 27.867 12.7784 27.5852 13.0602L27.5827 13.0615Z" fill="white"/>
</svg>
