<svg width="33" height="33" viewBox="0 0 33 33" fill="none" xmlns="http://www.w3.org/2000/svg">
<path d="M27.5827 19.7935L17.5827 9.79351C17.4433 9.65367 17.2777 9.54272 17.0954 9.46701C16.9131 9.3913 16.7176 9.35233 16.5202 9.35233C16.3228 9.35233 16.1273 9.3913 15.945 9.46701C15.7626 9.54272 15.597 9.65367 15.4577 9.79351L5.45768 19.7935C5.17589 20.0753 5.01758 20.4575 5.01758 20.856C5.01758 21.2545 5.17589 21.6367 5.45768 21.9185C5.73947 22.2003 6.12167 22.3586 6.52018 22.3586C6.91869 22.3586 7.30089 22.2003 7.58268 21.9185L16.5214 12.9798L25.4602 21.9198C25.742 22.2016 26.1242 22.3599 26.5227 22.3599C26.9212 22.3599 27.3034 22.2016 27.5852 21.9198C27.867 21.638 28.0253 21.2558 28.0253 20.8573C28.0253 20.4587 27.867 20.0766 27.5852 19.7948L27.5827 19.7935Z" fill="white"/>
</svg>
