<svg width="185" height="130" viewBox="0 0 185 130" fill="none" xmlns="http://www.w3.org/2000/svg">
<g clip-path="url(#clip0_1750_1533)">
<path fill-rule="evenodd" clip-rule="evenodd" d="M147.17 79.6001H184.52L174.58 92.6501L184.52 105.14H147.17V87.6201H161.96L147.17 79.6001Z" fill="#88888A"/>
<path d="M92.12 0C57 0 28.45 28.57 28.45 63.67C28.45 98.77 57 127.34 92.12 127.34C127.24 127.34 155.79 98.79 155.79 63.67C155.79 28.55 127.22 0 92.12 0ZM92.12 124.59C58.54 124.59 31.2 97.25 31.2 63.67C31.2 30.09 58.54 2.76 92.12 2.76C125.7 2.76 153.01 30.09 153.01 63.68C153.01 97.27 125.7 124.6 92.12 124.6V124.59Z" fill="#88888A"/>
<path fill-rule="evenodd" clip-rule="evenodd" d="M71.97 19.1901L66.66 11.2801L63.68 13.2801L64.74 17.05L64.89 17.5301L65.32 19.0201L65.44 19.5001L65.87 20.9401L66 21.4201L66.05 21.5701L66.02 21.5901L65.89 21.4901L65.49 21.1901L64.33 20.2801L63.95 19.9501L62.74 19.0101L62.36 18.6801L61.05 17.6701L60.67 17.3701L59.25 16.2601L56.29 18.2601L57.45 19.9801L57.73 20.3601L58.64 21.7301L58.89 22.1101L59.72 23.3701L60 23.75L60.81 24.9401L61.06 25.35L61.44 25.93L62.83 27.98L65.08 26.46L63.59 24.21L63.13 23.55L62.88 23.17L62.07 21.98L61.82 21.5801L60.99 20.3701L60.94 20.2901L60.99 20.2601L61.04 20.3101L62.25 21.22L62.65 21.5201L63.81 22.4L64.21 22.7001L64.89 23.23L67.22 25L68.74 23.99L68.01 21.2601L67.73 20.2501L67.6 19.7701L66.66 16.2801L66.71 16.2601L69.49 20.4001L70.91 22.5L73.19 20.9801L71.95 19.1901H71.97ZM114.14 10.3401L110.4 18.4801L109.24 20.9801L111.72 22.1201L112.86 19.6201L113.29 18.71L113.49 18.2801L114.07 16.9901L114.15 16.8101L116.63 11.4701L114.15 10.3301L114.14 10.3401ZM116.83 18.5801L115.97 19.72L115.69 20.1001L115.16 20.8301L113.72 22.7801L115.92 24.4L117.49 22.25L117.97 21.5901L118.25 21.21L119.11 20.0701L119.39 19.6901L120.28 18.5001L120.3 18.47H120.35V18.55L120.15 20.2501L120.1 20.7801L119.9 22.42L119.85 22.98L119.77 23.7901L119.42 26.97L121.6 28.59L123.14 26.49L123.44 26.09L123.72 25.6901L124.58 24.55L124.86 24.17L125.77 22.96L126.05 22.58L127.01 21.2901L127.29 20.89L128.58 19.1701L126.38 17.55L125.24 19.0901L124.96 19.47L124 20.7601L123.72 21.1701L122.83 22.3601L122.55 22.74L122 23.47L121.97 23.4401L122.07 22.35L122.15 21.7701L122.33 20.0301L122.41 19.47L122.61 17.6201L122.66 17.0701L122.91 14.9701L120.71 13.3501L119.55 14.9401L119.25 15.3201L118.31 16.6101L118.01 16.9901L117.13 18.2001L116.85 18.5801H116.83ZM98.34 6.04005L96.72 14.9901L96.24 17.5701L103.8 18.9401L104.18 16.8701L99.3 15.9901L99.43 15.3601L99.84 13.1401L103.88 13.8701L104.26 11.8001L100.21 11.0701L100.64 8.59005L105.52 9.48005L105.9 7.43005L98.34 6.06005V6.04005ZM84.81 6.12005L85.31 15.2301L85.46 17.8301L89.76 17.5801C91.13 17.5001 92.26 17.0001 93.12 16.0401C93.47 15.6601 93.75 15.2501 93.95 14.8001C94.25 14.1201 94.35 13.3601 94.33 12.5001L94.2 10.4001C94.12 9.01005 93.59 7.87005 92.61 7.04005C91.63 6.18005 90.46 5.80005 89.07 5.88005L84.8 6.13005L84.81 6.12005ZM88.05 14.9201L87.65 8.04005L89.22 7.96005C89.83 7.93005 90.36 8.14005 90.79 8.62005C91.22 9.10005 91.45 9.73005 91.5 10.5401L91.62 12.6601C91.67 13.4401 91.5 14.1001 91.14 14.6301C91.09 14.6801 91.06 14.7101 91.04 14.7501C90.69 15.2101 90.21 15.4301 89.65 15.4601L88.08 15.5601L88.05 14.9001V14.9201ZM74.67 8.52005L74.49 18.1001L74.46 20.8301L77.19 19.9901L77.16 17.6101L80.5 16.6001L81.81 18.5701L84.54 17.71L83.05 15.5901L77.44 7.65005L76.05 8.08005L74.66 8.51005L74.67 8.52005ZM77.12 11.6601L77.17 11.6301L79.29 14.7901L77.14 15.4501L77.11 11.6601H77.12Z" fill="#88888A"/>
<path fill-rule="evenodd" clip-rule="evenodd" d="M161.96 87.6201L147.17 79.6001V87.6201H161.96Z" fill="white"/>
<path fill-rule="evenodd" clip-rule="evenodd" d="M37.37 79.6001H0L9.96 92.6501L0 105.14H37.37V87.6201H22.56L37.37 79.6001Z" fill="#88888A"/>
<path fill-rule="evenodd" clip-rule="evenodd" d="M22.56 87.6201L37.37 79.6001V87.6201H22.56Z" fill="white"/>
<path fill-rule="evenodd" clip-rule="evenodd" d="M161.54 87.6199C116.63 71.4399 67.47 71.4399 22.56 87.6199V117.05C67.47 133.21 116.63 133.21 161.54 117.05V87.6199ZM58.49 111H63.02V92.1499H58.49V111ZM81.92 111H77.4L70.72 99.2699V111H66.18V92.1499H70.72L77.39 103.88V92.1499H81.92V111ZM84.79 92.1499V111H90.91C92.17 111 93.33 110.78 94.39 110.34C95.45 109.9 96.37 109.28 97.14 108.49C97.92 107.69 98.52 106.74 98.95 105.64C99.39 104.54 99.6 103.32 99.6 101.98V101.19C99.6 99.8599 99.38 98.6399 98.95 97.5299C98.51 96.4199 97.91 95.4699 97.14 94.6699C96.37 93.8699 95.45 93.2499 94.38 92.8099C93.31 92.3699 92.14 92.1499 90.86 92.1499H84.79ZM89.33 107.5V95.6599V95.6499H90.86C92.19 95.6499 93.21 96.1099 93.91 97.0299C94.61 97.9599 94.96 99.3299 94.96 101.15V101.97C94.96 103.8 94.61 105.18 93.91 106.11C93.21 107.04 92.21 107.5 90.91 107.5H89.33ZM106.77 111H102.24V92.1499H106.77V111ZM113.55 111L114.64 107.48H120.86L121.96 111H126.84L119.88 92.1499H115.61L108.7 111H113.55ZM119.78 103.97H115.73L117.75 97.4299L119.78 103.97Z" fill="#88888A"/>
<path d="M135.33 30.9502L136.6 33.4502L139.38 33.8602L137.36 35.8302L137.84 38.6102L135.33 37.3002L132.86 38.6102L133.34 35.8302L131.31 33.8602L134.1 33.4502L135.33 30.9502Z" fill="#88888A"/>
<path d="M143.05 46.5298L144.69 49.8698L148.38 50.3898L145.73 52.9698L146.34 56.6398L143.05 54.9198L139.79 56.6398L140.39 52.9698L137.74 50.3898L141.43 49.8698L143.05 46.5298Z" fill="#88888A"/>
<path d="M143.05 65.1899L144.69 68.4999L148.36 69.0299L145.7 71.6299L146.34 75.2799L143.05 73.5599L139.76 75.2799L140.39 71.6299L137.74 69.0299L141.41 68.4999L143.05 65.1899Z" fill="#88888A"/>
<path d="M48.8 30.9502L47.56 33.4502L44.78 33.8602L46.81 35.8302L46.33 38.6102L48.8 37.3002L51.31 38.6102L50.83 35.8302L52.85 33.8602L50.07 33.4502L48.8 30.9502Z" fill="#88888A"/>
<path d="M41.09 46.5298L39.45 49.8698L35.78 50.3898L38.44 52.9698L37.83 56.6398L41.09 54.9198L44.38 56.6398L43.77 52.9698L46.43 50.3898L42.73 49.8698L41.09 46.5298Z" fill="#88888A"/>
<path d="M41.12 65.1899L39.47 68.4999L35.81 69.0299L38.46 71.6299L37.83 75.2799L41.12 73.5599L44.4 75.2799L43.77 71.6299L46.43 69.0299L42.76 68.4999L41.12 65.1899Z" fill="#88888A"/>
<path d="M73.96 71.74H68.37V45.29H63.54V39.42L73.96 38.26V71.74ZM94.45 59.62C94.45 63.54 93.66 66.62 92.15 68.88C90.63 71.1 88.61 72.22 86.11 72.22C83.61 72.22 81.56 71.11 80.02 68.88C78.5 66.63 77.74 63.54 77.74 59.62V50.84C77.74 46.9 78.5 43.81 80.02 41.59C81.54 39.37 83.56 38.25 86.06 38.25C88.56 38.25 90.59 39.36 92.13 41.59C93.67 43.84 94.46 46.93 94.46 50.84V59.62H94.45ZM88.88 50.35C88.88 48.33 88.63 46.78 88.12 45.75C87.64 44.69 86.93 44.16 86.05 44.16C85.17 44.16 84.48 44.69 84 45.75C83.52 46.79 83.27 48.33 83.27 50.35V60.08C83.27 62.15 83.52 63.7 84 64.76C84.5 65.8 85.19 66.33 86.1 66.33C87.01 66.33 87.67 65.8 88.15 64.76C88.63 63.7 88.88 62.15 88.88 60.08V50.35ZM113.97 59.62C113.97 63.54 113.21 66.62 111.69 68.88C110.15 71.1 108.15 72.22 105.65 72.22C103.15 72.22 101.1 71.11 99.56 68.88C98.04 66.63 97.28 63.54 97.28 59.62V50.84C97.28 46.9 98.04 43.81 99.56 41.59C101.08 39.37 103.07 38.25 105.6 38.25C108.13 38.25 110.13 39.36 111.67 41.59C113.21 43.84 113.97 46.93 113.97 50.84V59.62ZM108.43 50.35C108.43 48.33 108.18 46.78 107.67 45.75C107.16 44.69 106.48 44.16 105.6 44.16C104.72 44.16 104.03 44.69 103.55 45.75C103.07 46.79 102.82 48.33 102.82 50.35V60.08C102.82 62.15 103.07 63.7 103.55 64.76C104.06 65.8 104.74 66.33 105.65 66.33C106.56 66.33 107.19 65.8 107.7 64.76C108.18 63.7 108.43 62.15 108.43 60.08V50.35Z" fill="#88888A"/>
<path d="M116.29 52.2901C116.29 51.5801 116.52 50.9701 116.97 50.5201C117.43 50.0401 118.08 49.8101 118.94 49.8101C119.8 49.8101 120.48 50.0401 120.94 50.5201C121.4 50.9801 121.65 51.5801 121.65 52.2901V52.9201C121.65 53.6501 121.4 54.2401 120.94 54.7201C120.48 55.1701 119.83 55.4001 118.97 55.4001C118.11 55.4001 117.45 55.1701 116.97 54.6901C116.51 54.2401 116.29 53.6301 116.29 52.9201V52.2901ZM118.06 52.9201C118.06 53.2001 118.14 53.4301 118.29 53.6301C118.44 53.8101 118.67 53.9101 118.97 53.9101C119.25 53.9101 119.48 53.8101 119.63 53.6301C119.78 53.4301 119.86 53.2001 119.86 52.9201V52.2901C119.86 52.0101 119.78 51.7801 119.61 51.5801C119.46 51.4001 119.26 51.3001 118.95 51.3001C118.67 51.3001 118.44 51.4001 118.29 51.5801C118.14 51.7801 118.06 52.0101 118.06 52.2901V52.9201ZM122.01 59.0701C122.01 58.3601 122.24 57.7801 122.69 57.3001C123.17 56.8201 123.83 56.5901 124.69 56.5901C125.55 56.5901 126.23 56.8201 126.69 57.3001C127.15 57.7601 127.37 58.3601 127.37 59.0701V59.7001C127.37 60.4301 127.14 61.0101 126.69 61.5001C126.23 61.9501 125.58 62.2101 124.72 62.2101C123.86 62.2101 123.18 61.9601 122.72 61.5001C122.24 61.0201 122.01 60.4401 122.01 59.7001V59.0701ZM123.8 59.7001C123.8 59.9801 123.88 60.2001 124.05 60.4101C124.23 60.5901 124.46 60.6901 124.71 60.6901C125.04 60.6901 125.26 60.6101 125.39 60.4401C125.52 60.2601 125.57 60.0401 125.57 59.7101V59.0801C125.57 58.8001 125.49 58.5701 125.34 58.4001C125.19 58.1901 124.96 58.1201 124.68 58.1201C124.4 58.1201 124.17 58.1901 124.02 58.4001C123.87 58.5801 123.79 58.8001 123.79 59.0801V59.7101L123.8 59.7001ZM119.35 61.1201L118.06 60.4601L123.93 51.0501L125.24 51.7101L119.35 61.1201Z" fill="#88888A"/>
</g>
<defs>
<clipPath id="clip0_1750_1533">
<rect width="184.52" height="129.17" fill="white"/>
</clipPath>
</defs>
</svg>
