<svg width="172" height="136" viewBox="0 0 172 136" fill="none" xmlns="http://www.w3.org/2000/svg">
<path fill-rule="evenodd" clip-rule="evenodd" d="M35.2558 80.4058C42.3101 109.527 60.064 126.862 86.5995 130.531L86.6061 130.537L87.2958 130.636L87.9854 130.537C114.521 126.869 132.275 109.534 139.329 80.4124C144.472 59.1857 142.081 39.289 141.976 38.4504L141.661 35.9347L87.2892 5.27393L32.9241 35.9347L32.6088 38.4439C32.5037 39.2825 30.1129 59.1792 35.2558 80.4058ZM38.3173 79.8475C44.9748 107.241 61.7301 123.548 86.7731 126.999L86.7793 127.006L87.4302 127.098L88.081 127.006C113.124 123.554 129.879 107.248 136.537 79.8537C141.391 59.8861 139.134 41.1695 139.035 40.3807L138.737 38.0142L87.424 9.17208L36.1167 38.0142L35.8192 40.3745C35.72 41.1634 33.4636 59.8799 38.3173 79.8475Z" fill="#88888A"/>
<path fill-rule="evenodd" clip-rule="evenodd" d="M137.269 89.0845H171.36L162.288 100.996L171.36 112.396H137.269V96.4047H150.769L137.269 89.0845Z" fill="#88888A"/>
<path fill-rule="evenodd" clip-rule="evenodd" d="M23.5314 96.4047L37.0492 89.0845V96.4047H23.5314Z" fill="white"/>
<path fill-rule="evenodd" clip-rule="evenodd" d="M150.769 96.4047L137.269 89.0845V96.4047H150.769Z" fill="white"/>
<path fill-rule="evenodd" clip-rule="evenodd" d="M37.0491 89.0845H2.93958L12.0306 100.996L2.93958 112.396H37.0491V96.4047H23.5313L37.0491 89.0845Z" fill="#88888A"/>
<path d="M67.7085 72.7829H62.6062V48.6406H58.1976V43.2828L67.7085 42.224V72.7829ZM86.4108 61.7203C86.4108 65.2983 85.6897 68.1096 84.3115 70.1724C82.9241 72.1987 81.0803 73.221 78.7984 73.221C76.5166 73.221 74.6454 72.2079 73.2398 70.1724C71.8524 68.1187 71.1587 65.2983 71.1587 61.7203V53.7064C71.1587 50.1101 71.8524 47.2897 73.2398 45.2634C74.6272 43.2371 76.4709 42.2148 78.7528 42.2148C81.0347 42.2148 82.8876 43.228 84.2932 45.2634C85.6988 47.3171 86.4199 50.1375 86.4199 53.7064V61.7203H86.4108ZM81.3268 53.2591C81.3268 51.4154 81.0986 50.0006 80.6331 49.0605C80.1949 48.093 79.5469 47.6092 78.7437 47.6092C77.9405 47.6092 77.3107 48.093 76.8725 49.0605C76.4344 50.0097 76.2062 51.4154 76.2062 53.2591V62.1402C76.2062 64.0296 76.4344 65.4444 76.8725 66.4119C77.3289 67.3612 77.9587 67.8449 78.7893 67.8449C79.6199 67.8449 80.2223 67.3612 80.6605 66.4119C81.0986 65.4444 81.3268 64.0296 81.3268 62.1402V53.2591ZM104.228 61.7203C104.228 65.2983 103.534 68.1096 102.147 70.1724C100.741 72.1987 98.9155 73.221 96.6336 73.221C94.3517 73.221 92.4806 72.2079 91.0749 70.1724C89.6876 68.1187 88.9939 65.2983 88.9939 61.7203V53.7064C88.9939 50.1101 89.6876 47.2897 91.0749 45.2634C92.4623 43.2371 94.2787 42.2148 96.588 42.2148C98.8972 42.2148 100.723 43.228 102.128 45.2634C103.534 47.3171 104.228 50.1375 104.228 53.7064V61.7203ZM99.1711 53.2591C99.1711 51.4154 98.9429 50.0006 98.4774 49.0605C98.0119 48.093 97.3912 47.6092 96.588 47.6092C95.7847 47.6092 95.1549 48.093 94.7168 49.0605C94.2787 50.0097 94.0505 51.4154 94.0505 53.2591V62.1402C94.0505 64.0296 94.2787 65.4444 94.7168 66.4119C95.1823 67.3612 95.803 67.8449 96.6336 67.8449C97.4642 67.8449 98.0392 67.3612 98.5047 66.4119C98.9429 65.4444 99.1711 64.0296 99.1711 62.1402V53.2591Z" fill="#88888A"/>
<path d="M106.345 55.0297C106.345 54.3817 106.555 53.8249 106.966 53.4142C107.386 52.976 107.979 52.7661 108.764 52.7661C109.549 52.7661 110.17 52.976 110.59 53.4142C111.009 53.834 111.238 54.3817 111.238 55.0297V55.6048C111.238 56.2711 111.009 56.8096 110.59 57.2477C110.17 57.6585 109.576 57.8684 108.791 57.8684C108.006 57.8684 107.404 57.6585 106.966 57.2203C106.546 56.8096 106.345 56.2528 106.345 55.6048V55.0297ZM107.961 55.6048C107.961 55.8603 108.034 56.0703 108.171 56.2528C108.308 56.4171 108.518 56.5084 108.791 56.5084C109.047 56.5084 109.257 56.4171 109.394 56.2528C109.531 56.0703 109.604 55.8603 109.604 55.6048V55.0297C109.604 54.7742 109.531 54.5642 109.376 54.3817C109.239 54.2174 109.056 54.1261 108.773 54.1261C108.518 54.1261 108.308 54.2174 108.171 54.3817C108.034 54.5642 107.961 54.7742 107.961 55.0297V55.6048ZM111.566 61.2182C111.566 60.5701 111.776 60.0407 112.187 59.6026C112.625 59.1645 113.227 58.9546 114.012 58.9546C114.797 58.9546 115.418 59.1645 115.838 59.6026C116.258 60.0225 116.459 60.5701 116.459 61.2182V61.7932C116.459 62.4595 116.249 62.9889 115.838 63.4362C115.418 63.8469 114.825 64.0842 114.04 64.0842C113.255 64.0842 112.634 63.856 112.214 63.4362C111.776 62.9981 111.566 62.4687 111.566 61.7932V61.2182ZM113.2 61.7932C113.2 62.0488 113.273 62.2496 113.428 62.4413C113.592 62.6056 113.802 62.6968 114.031 62.6968C114.332 62.6968 114.533 62.6238 114.651 62.4687C114.77 62.3044 114.816 62.1036 114.816 61.8024V61.2273C114.816 60.9718 114.743 60.7618 114.606 60.6067C114.469 60.415 114.259 60.3511 114.003 60.3511C113.748 60.3511 113.538 60.415 113.401 60.6067C113.264 60.7709 113.191 60.9718 113.191 61.2273V61.8024L113.2 61.7932ZM109.138 63.0893L107.961 62.4869L113.319 53.8979L114.514 54.5003L109.138 63.0893Z" fill="#88888A"/>
<path fill-rule="evenodd" clip-rule="evenodd" d="M23.5314 96.4049C64.523 81.6365 109.394 81.6365 150.386 96.4049V123.267C109.394 138.017 64.523 138.017 23.5314 123.267V96.4049Z" fill="#27272B"/>
<path fill-rule="evenodd" clip-rule="evenodd" d="M150.386 96.4049C109.394 81.6365 64.523 81.6365 23.5314 96.4049V123.267C64.523 138.017 109.394 138.017 150.386 123.267V96.4049ZM36.3463 114.327C36.3463 116.548 37.6089 117.308 39.5714 117.308C41.5338 117.308 42.8116 116.548 42.8116 114.327V112.258C42.8116 110.157 41.4825 109.609 40.3925 109.159C39.6352 108.846 38.9933 108.581 38.9933 107.877V105.975C38.9933 105.412 39.2367 105.245 39.5714 105.245C39.906 105.245 40.1494 105.412 40.1494 105.975V108.013H42.766V105.96C42.766 103.739 41.5186 102.978 39.5562 102.978C37.6089 102.978 36.3311 103.739 36.3311 105.96V108.029C36.3311 110.129 37.655 110.678 38.7405 111.127C39.4949 111.44 40.1342 111.705 40.1342 112.41V114.311C40.1342 114.874 39.8908 115.042 39.5562 115.042C39.2063 115.042 38.9629 114.874 38.9629 114.311V112.273H36.3463V114.327ZM46.8841 105.427H48.8009V103.145H44.161V117.141H48.8009V114.859H46.8841V111.238H48.7552V108.987H46.8841V105.427ZM49.9278 114.342C49.9278 116.593 51.2513 117.339 53.2289 117.339C55.2065 117.339 56.53 116.593 56.53 114.342V110.858H53.807V114.327C53.807 114.889 53.5483 115.057 53.2289 115.057C52.9094 115.057 52.6508 114.889 52.6508 114.327V105.99C52.6508 105.427 52.9094 105.26 53.2289 105.26C53.5483 105.26 53.807 105.427 53.807 105.99V109.428H56.53V105.975C56.53 103.723 55.2065 102.978 53.2289 102.978C51.2513 102.978 49.9278 103.723 49.9278 105.975V114.342ZM57.8159 114.311C57.8159 116.563 59.1394 117.308 61.1171 117.308C63.0947 117.308 64.4182 116.563 64.4182 114.311V103.145H61.6951V114.296C61.6951 114.859 61.4365 115.026 61.1171 115.026C60.7976 115.026 60.539 114.859 60.539 114.296V103.145H57.8159V114.311ZM70.1157 117.141H72.5345L71.4088 112.349C71.9412 111.908 72.2607 111.223 72.2607 110.219V106.142C72.2607 103.982 71.8043 103.145 69.5681 103.145H65.7041V117.141H68.4272V113.049H68.914H69.2182L70.1157 117.141ZM68.9292 111.117H68.4272V105.412H68.9292C69.4464 105.412 69.5985 105.595 69.5985 106.157V110.371C69.5985 110.934 69.4464 111.117 68.9292 111.117ZM76.3866 105.427H78.3034V103.145H73.6636V117.141H78.3034V114.859H76.3866V111.238H78.2578V108.987H76.3866V105.427ZM88.8657 106.142C88.8657 103.982 88.4093 103.145 86.173 103.145H82.3091V117.141H85.0321V114.205H86.173C88.4093 114.205 88.8657 113.368 88.8657 111.208V106.142ZM86.2035 106.157V111.193C86.2035 111.756 86.0513 111.938 85.5341 111.938H85.0321V105.412H85.5341C86.0513 105.412 86.2035 105.595 86.2035 106.157ZM94.1679 114.737L94.3809 117.141H97.0127L95.6283 103.145H90.9125L89.5281 117.141H92.1599L92.3729 114.737H94.1679ZM93.9854 112.455H92.5554L93.1487 105.61H93.3921L93.9854 112.455ZM104.432 103.145H101.8L100.751 108.865H100.599L99.5489 103.145H96.9171L99.3359 112.623V117.141H102.013V112.623L104.432 103.145ZM105.564 103.145V117.141H108.074V106.857H108.287L109.245 117.141H112.151L113.109 106.857H113.322V117.141H115.832V103.145H111.709L110.781 113.505H110.614L109.686 103.145H105.564ZM119.829 105.427H121.746V103.145H117.106V117.141H121.746V114.859H119.829V111.238H121.7V108.987H119.829V105.427ZM122.944 103.145V117.141H125.454V109.489L125.378 107.633H125.546L127.158 117.141H130.611V103.145H128.101V110.797L128.177 112.653H128.01L126.398 103.145H122.944ZM138.045 105.427V103.145H131.732V105.427H133.527V117.141H136.25V105.427H138.045Z" fill="#88888A"/>
</svg>
