<svg width="215" height="180" viewBox="0 0 215 180" fill="none" xmlns="http://www.w3.org/2000/svg">
<g clip-path="url(#clip0_1752_1908)">
<path fill-rule="evenodd" clip-rule="evenodd" d="M106.003 146.09L33.6565 111.129L35.1006 47.816L108.951 15.9484L181.307 50.9109L179.863 114.224L106.003 146.09ZM106.211 142.974L36.9806 109.641L38.3625 49.2761L109.032 18.8923L178.271 52.2269L176.889 112.592L106.211 142.974Z" fill="#88888A"/>
<path d="M66.5179 74.2852L69.4614 53.4539L74.7824 53.4539L71.8389 74.2852L66.5179 74.2852ZM72.5942 74.2852L75.5378 53.4539L82.1495 53.4539L82.0815 65.4319L82.3985 65.4319L82.6929 62.1713L83.9156 53.4539L88.8064 53.4539L85.8629 74.2852L79.2286 74.2852L79.3191 62.3072L79.0021 62.3072L78.7078 65.5451L77.4851 74.2852L72.5942 74.2852ZM92.333 74.5342C88.8913 74.5342 86.9441 73.2436 87.4648 69.6208L87.8724 66.6093L92.9897 66.6093L92.5594 69.5981C92.5142 70.0057 92.65 70.1189 92.9217 70.1189C93.1708 70.1189 93.3067 70.0057 93.3519 69.5981L93.7595 66.7904C94.0312 64.979 87.8498 66.6999 88.6196 61.2656L89.0498 58.1183C89.548 54.4954 91.8802 53.2048 95.2766 53.2048C98.7183 53.2048 100.666 54.4954 100.145 58.1183L99.7145 61.1297L94.6199 61.1297L95.0275 58.1409C95.0954 57.7333 94.9369 57.5975 94.6879 57.5975C94.4388 57.5975 94.3029 57.7333 94.2577 58.1409L93.8501 60.9486C93.5784 62.76 99.7825 61.0392 99.0126 66.4734L98.5824 69.6208C98.0843 73.2436 95.7747 74.5342 92.333 74.5342ZM111.903 53.4539L111.292 57.8918L108.575 57.8918L106.265 74.2852L100.944 74.2852L103.254 57.8918L100.582 57.8918L101.193 53.4539L111.903 53.4539ZM112.826 53.4539L121.884 53.4539L120.751 74.2852L115.679 74.2852L115.906 71.2963L113.755 71.2963L113.143 74.2852L108.071 74.2852L112.826 53.4539ZM114.66 66.8357L116.268 66.8357L116.947 58.2541L116.427 58.2541L114.66 66.8357ZM121.311 74.2852L124.255 53.4539L130.867 53.4539L130.799 65.4319L131.116 65.4319L131.41 62.1713L132.633 53.4539L137.524 53.4539L134.58 74.2852L127.946 74.2852L128.036 62.3072L127.719 62.3072L127.425 65.5451L126.202 74.2852L121.311 74.2852ZM148.839 53.4539L148.228 57.8918L145.511 57.8918L143.201 74.2852L137.88 74.2852L140.19 57.8918L137.518 57.8918L138.129 53.4539L148.839 53.4539Z" fill="#88888A"/>
<path fill-rule="evenodd" clip-rule="evenodd" d="M18.1376 113.699L192.46 111.323L197.259 81.7626L22.9366 84.1386L18.1376 113.699ZM64.1715 89.9024L59.87 89.9731L57.7375 102.595L57.5299 102.599L58.3984 89.9973L52.2668 90.0981L49.9834 102.723L49.7758 102.726L50.7953 90.1223L46.5126 90.1927L45.666 107.568L52.4579 107.457L54.6473 94.8523L54.836 94.8492L53.8729 107.433L60.6648 107.322L64.1715 89.9024ZM65.4252 89.8818L63.258 107.279L67.6916 107.206L69.8588 89.8089L65.4252 89.8818ZM79.5294 93.3487L79.978 89.6425L71.0542 89.7892L70.6056 93.4954L72.8318 93.4588L71.1321 107.15L75.5657 107.077L77.2654 93.3859L79.5294 93.3487ZM90.6664 89.4667L86.2516 89.5393L85.3681 96.6307L84.7266 96.6412L85.6102 89.5499L81.1766 89.6228L79.0094 107.02L83.4429 106.947L84.2595 100.367L84.9009 100.356L84.0844 106.937L88.4991 106.864L90.6664 89.4667ZM100.951 93.3928C101.316 90.3673 100.789 89.3003 97.6572 89.3518L91.9596 89.4455L89.7924 106.843L95.49 106.749C98.6218 106.698 99.4343 105.609 99.7997 102.583L100.951 93.3928ZM96.1333 93.0757C96.4917 93.0698 96.5508 93.2198 96.5184 93.5411L95.3837 102.58C95.3513 102.902 95.2217 103.055 94.8821 103.06L94.6934 103.063L95.9257 93.0791L96.1333 93.0757ZM111.718 93.2157C112.084 90.1903 111.556 89.1233 108.425 89.1748L102.765 89.2678L100.597 106.665L105.031 106.592L105.632 101.827L105.745 101.825L106.104 101.819L106.54 106.567L110.446 106.503L109.783 100.607C110.49 99.9919 110.966 99.1348 111.116 97.9057L111.718 93.2157ZM106.015 98.7067L106.731 92.8826L106.938 92.8791C107.297 92.8732 107.412 93.0223 107.38 93.3437L106.781 98.2224C106.748 98.5437 106.562 98.6977 106.204 98.7036L106.015 98.7067ZM122.715 88.9398L115.168 89.0639L111.492 106.486L115.718 106.417L116.186 103.918L117.978 103.888L117.831 106.382L122.057 106.312L122.715 88.9398ZM118.219 100.167L116.88 100.189L118.234 93.0142L118.668 93.0071L118.219 100.167ZM141.864 88.6249L137.562 88.6957L135.429 101.318L135.222 101.321L136.09 88.7199L129.959 88.8207L127.675 101.446L127.468 101.449L128.487 88.8449L124.205 88.9153L123.358 106.291L130.15 106.179L132.339 93.5749L132.528 93.5718L131.565 106.156L138.357 106.044L141.864 88.6249ZM150.913 88.4761L143.367 88.6002L139.69 106.022L143.916 105.953L144.385 103.454L146.177 103.425L146.029 105.918L150.256 105.849L150.913 88.4761ZM146.418 99.7031L145.078 99.7251L146.432 92.5506L146.866 92.5434L146.418 99.7031ZM158.604 102.013L156.302 102.05L158.002 88.3596L153.569 88.4325L151.401 105.83L158.137 105.719L158.604 102.013ZM160.14 101.799C159.756 104.824 161.396 105.873 164.264 105.826C167.131 105.779 169.038 104.672 169.404 101.646L169.719 99.018C170.078 96.1418 168.143 95.6984 166.729 95.3743C165.911 95.187 165.268 95.0395 165.342 94.4854L165.643 92.1404C165.675 91.8001 165.786 91.6851 165.994 91.6817C166.201 91.6783 166.335 91.7893 166.284 92.1298L165.986 94.6258L170.23 94.556L170.548 92.0408C170.932 89.0151 169.292 87.9664 166.424 88.0135C163.594 88.0601 161.669 89.1674 161.303 92.1928L160.988 94.8212C160.628 97.6974 162.556 98.1409 163.965 98.4651C164.779 98.6525 165.42 98.8 165.346 99.3541L165.045 101.699C165.013 102.039 164.901 102.136 164.694 102.139C164.467 102.143 164.353 102.05 164.385 101.71L164.702 99.2137L160.438 99.2839L160.14 101.799Z" fill="#88888A"/>
</g>
<defs>
<clipPath id="clip0_1752_1908">
<rect width="189.972" height="145.683" fill="white" transform="translate(28.505) rotate(11.2134)"/>
</clipPath>
</defs>
</svg>
