<svg width="123" height="126" viewBox="0 0 123 126" fill="none" xmlns="http://www.w3.org/2000/svg">
<g clip-path="url(#clip0_1752_1954)">
<circle opacity="0.1" cx="63.5" cy="69.5" r="55.5" fill="#88888A"/>
<path fill-rule="evenodd" clip-rule="evenodd" d="M64.1688 12.8476C79.5352 15.0152 93.9411 23.4891 103.21 37.4302V37.4202C119.22 61.5002 114.26 93.4002 92.67 111.6L87.5 115.5L81.61 118.9C74.0569 122.71 65.9531 124.666 57.8799 124.884C68.9669 126.456 80.5565 124.746 91.08 119.44L101.37 123.64L102.14 112.14C123.73 93.9403 128.69 62.0403 112.68 37.9603L112.67 37.9703C101.516 21.1938 82.9228 12.3304 64.1688 12.8476Z" fill="#88888A"/>
<path fill-rule="evenodd" clip-rule="evenodd" d="M83.78 25.72C83.78 39.9248 72.2647 51.44 58.06 51.44C43.8552 51.44 32.34 39.9248 32.34 25.72C32.34 11.5152 43.8552 0 58.06 0C72.2647 0 83.78 11.5152 83.78 25.72ZM42.096 23.616C42.0213 23.4667 41.984 23.2373 41.984 22.928C41.984 22.2987 42.1493 21.7973 42.48 21.424C42.8107 21.04 43.2747 20.848 43.872 20.848C44.736 20.848 45.168 21.232 45.168 22C45.168 22.448 45.0133 22.8533 44.704 23.216C44.4053 23.5787 44.0267 23.8773 43.568 24.112C43.1093 24.336 42.5973 24.5973 42.032 24.896C41.4773 25.184 40.9493 25.4773 40.448 25.776C39.9467 26.0747 39.4987 26.4907 39.104 27.024C38.7093 27.5467 38.4533 28.144 38.336 28.816L38.128 30H46.496L46.944 27.504H42.672V27.488C42.704 27.3813 42.912 27.2267 43.296 27.024C43.68 26.8107 44.1333 26.5547 44.656 26.256C45.1787 25.9467 45.7013 25.5893 46.224 25.184C46.7467 24.768 47.1893 24.24 47.552 23.6C47.9147 22.9493 48.096 22.2507 48.096 21.504C48.096 19.4133 46.8 18.368 44.208 18.368C42.5867 18.368 41.3387 18.7573 40.464 19.536C39.6 20.304 39.168 21.3333 39.168 22.624C39.168 23.0293 39.2 23.36 39.264 23.616H42.096ZM52.4759 30H55.3239L55.6759 27.968H57.2599L57.6599 25.664H56.0759L56.4759 23.472H53.8359L53.4359 25.664H51.7239L51.8839 24.736L56.5079 18.8H53.4679L48.9399 24.272L48.2839 27.968H52.8279L52.4759 30ZM56.518 34.432H59.862L67.782 17.84H64.454L56.518 34.432ZM67.8517 30H70.7318C70.8918 29.072 71.1851 28.1973 71.6118 27.376C72.0384 26.5547 72.5024 25.8453 73.0037 25.248C73.5051 24.64 74.0011 24.0533 74.4917 23.488C75.6971 22.1227 76.4011 20.848 76.6038 19.664L76.8118 18.48H68.4437L67.9958 20.976H72.9077C72.8651 21.232 72.6891 21.568 72.3797 21.984C72.0704 22.3893 71.6971 22.848 71.2598 23.36C70.8331 23.8613 70.3958 24.4213 69.9478 25.04C69.4997 25.6587 69.0784 26.4053 68.6838 27.28C68.2998 28.1547 68.0224 29.0613 67.8517 30Z" fill="#88888A"/>
<path d="M28.1049 81.2529C25.3034 81.2529 23.6109 80.2413 24.0584 77.187L25.498 66.954C25.9454 63.9191 27.8714 62.8881 30.6728 62.8881C33.4548 62.8881 35.1473 63.9191 34.7193 66.954L34.0773 71.4674H29.9725L30.6145 66.9735C30.6923 66.4676 30.4588 66.312 30.1865 66.312C29.9141 66.312 29.6807 66.4676 29.6028 66.9735L28.1438 77.1675C28.0854 77.6928 28.2994 77.829 28.5912 77.829C28.8636 77.829 29.097 77.6928 29.1554 77.1675L29.8168 72.6347H33.9217L33.2602 77.187C32.8322 80.2413 30.8868 81.2529 28.1049 81.2529ZM38.201 81.214C35.3996 81.214 33.7071 80.1829 34.1545 77.1481L36.1194 63.1021H40.2243L38.2399 77.1286C38.1816 77.6344 38.3956 77.79 38.6874 77.79C38.9597 77.79 39.1932 77.6344 39.2516 77.1286L41.2359 63.1021H45.3407L43.3564 77.1481C42.9284 80.1829 40.983 81.214 38.201 81.214ZM48.2744 81.214C45.5119 81.214 43.9166 80.1635 44.3446 77.1675L44.7143 74.5606H48.644L48.2744 77.1481C48.216 77.6539 48.4106 77.8095 48.7413 77.8095C49.0331 77.8095 49.2471 77.6539 49.3055 77.1481L49.6556 74.7163C49.928 72.907 44.7532 74.2299 45.3952 69.6192L45.7648 66.9346C46.1733 63.9386 48.0798 62.8881 50.8229 62.8881C53.5854 62.8881 55.1612 63.9386 54.7332 66.9346L54.3636 69.5414H50.4338L50.8034 66.954C50.8618 66.4482 50.6673 66.2926 50.356 66.2926C50.0642 66.2926 49.8502 66.4482 49.7724 66.954L49.4222 69.3858C49.1693 71.195 54.3636 69.8721 53.7216 74.4828L53.352 77.1675C52.9434 80.1635 51.0369 81.214 48.2744 81.214ZM64.5102 63.1021L64.0238 66.526H61.7088L59.6661 81H55.5807L57.6234 66.526H55.3083L55.7947 63.1021H64.5102ZM66.9265 81.214C64.1445 81.214 62.452 80.1829 62.88 77.1481L64.3391 66.954C64.7671 63.9191 66.7125 62.8881 69.4945 62.8881C72.2764 62.8881 73.9689 63.9191 73.5409 66.954L72.0819 77.1481C71.6539 80.1829 69.7084 81.214 66.9265 81.214ZM67.4128 77.79C67.6852 77.79 67.9381 77.6344 68.0159 77.1286L69.4166 66.9735C69.4945 66.4676 69.2999 66.312 69.0081 66.312C68.7357 66.312 68.4828 66.4676 68.405 66.9735L67.0043 77.1286C66.9265 77.6344 67.121 77.79 67.4128 77.79ZM72.4348 81L74.9638 63.1021H81.1114L80.2554 75.4944H80.4889L83.1346 63.1021H89.2822L86.7531 81H82.979L84.7104 68.7243H84.3992L81.7339 81H77.454L78.2322 68.7243H77.9403L76.2089 81H72.4348ZM96.1198 66.526H93.7658L93.2405 70.3001H95.5361L95.0498 73.6852H92.7542L92.2095 77.576H94.5634L94.0771 81H87.6182L90.1473 63.1021H96.6061L96.1198 66.526ZM102.821 63.1021C105.895 63.1021 106.382 64.1915 105.973 67.168L105.253 72.1483C105.078 73.4128 104.553 74.2883 103.833 74.8914L104.397 81H100.759L100.37 75.9613H100.001H99.6699L98.9501 81H94.8452L97.3743 63.1021H102.821ZM100.993 66.5066L100.078 73.0627H100.448C100.954 73.0627 101.168 72.8681 101.226 72.3818L101.946 67.2069C102.024 66.7011 101.888 66.5066 101.382 66.5066H100.993ZM28.1438 109.214C25.3813 109.214 23.786 108.163 24.214 105.168L24.5836 102.561H28.5134L28.1438 105.148C28.0854 105.654 28.2799 105.809 28.6107 105.809C28.9025 105.809 29.1165 105.654 29.1748 105.148L29.525 102.716C29.7974 100.907 24.6225 102.23 25.2645 97.6192L25.6342 94.9346C26.0427 91.9386 27.9492 90.8881 30.6923 90.8881C33.4548 90.8881 35.0306 91.9386 34.6026 94.9346L34.233 97.5414H30.3032L30.6728 94.954C30.7312 94.4482 30.5366 94.2926 30.2254 94.2926C29.9336 94.2926 29.7196 94.4482 29.6417 94.954L29.2916 97.3858C29.0387 99.195 34.233 97.8721 33.591 102.483L33.2213 105.168C32.8128 108.163 30.9063 109.214 28.1438 109.214ZM38.2694 109.214C35.468 109.214 33.7755 108.183 34.2229 105.148L36.1878 91.1021H40.2927L38.3083 105.129C38.25 105.634 38.464 105.79 38.7558 105.79C39.0281 105.79 39.2616 105.634 39.3199 105.129L41.3043 91.1021H45.4091L43.4248 105.148C42.9968 108.183 41.0514 109.214 38.2694 109.214ZM51.7084 91.1021C54.7822 91.1021 55.2685 92.1915 54.86 95.168L53.9651 101.432C53.5565 104.409 52.7395 105.498 49.6851 105.498H48.3233L47.837 109H43.7321L46.2612 91.1021H51.7084ZM50.8329 95.2069C50.9107 94.7011 50.7746 94.5066 50.2688 94.5066H49.8797L48.8097 102.094H49.1988C49.6851 102.094 49.8991 101.899 49.9575 101.393L50.8329 95.2069ZM61.8535 91.1021C64.9273 91.1021 65.4136 92.1915 65.0051 95.168L64.1102 101.432C63.7016 104.409 62.8846 105.498 59.8302 105.498H58.4684L57.9821 109H53.8772L56.4063 91.1021H61.8535ZM60.978 95.2069C61.0559 94.7011 60.9197 94.5066 60.4139 94.5066H60.0248L58.9548 102.094H59.3439C59.8302 102.094 60.0442 101.899 60.1026 101.393L60.978 95.2069ZM68.6135 109.214C65.8316 109.214 64.1391 108.183 64.567 105.148L66.0261 94.954C66.4541 91.9191 68.3995 90.8881 71.1815 90.8881C73.9635 90.8881 75.656 91.9191 75.228 94.954L73.7689 105.148C73.3409 108.183 71.3955 109.214 68.6135 109.214ZM69.0999 105.79C69.3723 105.79 69.6252 105.634 69.703 105.129L71.1037 94.9735C71.1815 94.4676 70.987 94.312 70.6951 94.312C70.4228 94.312 70.1699 94.4676 70.0921 94.9735L68.6914 105.129C68.6135 105.634 68.8081 105.79 69.0999 105.79ZM82.0981 91.1021C85.1719 91.1021 85.6582 92.1915 85.2497 95.168L84.5299 100.148C84.3548 101.413 83.8295 102.288 83.1097 102.891L83.6739 109H80.0359L79.6469 103.961H79.2772H78.9465L78.2267 109H74.1218L76.6509 91.1021H82.0981ZM80.2694 94.5066L79.355 101.063H79.7247C80.2305 101.063 80.4445 100.868 80.5028 100.382L81.2227 95.2069C81.3005 94.7011 81.1643 94.5066 80.6585 94.5066H80.2694ZM95.0823 91.1021L94.596 94.526H92.2809L90.2382 109H86.1528L88.1955 94.526H85.8804L86.3668 91.1021H95.0823Z" fill="#88888A"/>
</g>
<defs>
<clipPath id="clip0_1752_1954">
<rect width="122.09" height="125.45" fill="white"/>
</clipPath>
</defs>
</svg>
