<svg width="24" height="24" viewBox="0 0 24 24" fill="none" xmlns="http://www.w3.org/2000/svg">
<g clip-path="url(#clip0_1866_3747)">
<path d="M23.2 23.2009V14.7039C23.2 10.5279 22.301 7.33789 17.429 7.33789C15.08 7.33789 13.514 8.61389 12.876 9.83189H12.818V7.71489H8.20703V23.2009H13.021V15.5159C13.021 13.4859 13.398 11.5429 15.892 11.5429C18.357 11.5429 18.386 13.8339 18.386 15.6319V23.1719H23.2V23.2009Z" fill="white"/>
<path d="M0.376953 7.71191H5.19095V23.1979H0.376953V7.71191Z" fill="white"/>
<path d="M2.784 0C1.247 0 0 1.247 0 2.784C0 4.321 1.247 5.597 2.784 5.597C4.321 5.597 5.568 4.321 5.568 2.784C5.568 1.247 4.321 0 2.784 0Z" fill="white"/>
</g>
<defs>
<clipPath id="clip0_1866_3747">
<rect width="24" height="24" fill="white"/>
</clipPath>
</defs>
</svg>
