<svg width="25" height="25" viewBox="0 0 25 25" fill="none" xmlns="http://www.w3.org/2000/svg">
<path d="M19.7838 3.81234C20.2368 3.91193 20.6411 4.16589 20.9275 4.53074C21.2139 4.89558 21.3646 5.34863 21.3538 5.81234V9.84234C21.3532 12.4787 20.5619 15.0542 19.0823 17.2362C17.6027 19.4181 15.5028 21.1062 13.0538 22.0823C12.6024 22.251 12.1052 22.251 11.6538 22.0823C9.20486 21.1062 7.10492 19.4181 5.62532 17.2362C4.14572 15.0542 3.35447 12.4787 3.35382 9.84234V5.77234C3.343 5.30863 3.49369 4.85558 3.78009 4.49074C4.06649 4.12589 4.4708 3.87193 4.92382 3.77234L11.9238 2.22234C12.2062 2.15245 12.5014 2.15245 12.7838 2.22234L19.7838 3.81234Z" fill="#20BF55"/>
<path d="M11.5839 14.9819C11.323 14.9834 11.0718 14.8829 10.8839 14.7019L8.6039 12.4619C8.51018 12.3689 8.43578 12.2583 8.38501 12.1364C8.33424 12.0146 8.30811 11.8839 8.30811 11.7519C8.30811 11.6198 8.33424 11.4891 8.38501 11.3673C8.43578 11.2454 8.51018 11.1348 8.6039 11.0419C8.79127 10.8556 9.04472 10.7511 9.3089 10.7511C9.57309 10.7511 9.82654 10.8556 10.0139 11.0419L11.5939 12.5919L15.7039 8.59185C15.7978 8.49927 15.909 8.42609 16.0312 8.37649C16.1534 8.32688 16.2841 8.30183 16.416 8.30276C16.5478 8.30369 16.6782 8.33058 16.7997 8.3819C16.9212 8.43322 17.0313 8.50796 17.1239 8.60185C17.2165 8.69575 17.2897 8.80696 17.3393 8.92913C17.3889 9.05131 17.4139 9.18206 17.413 9.31392C17.4121 9.44578 17.3852 9.57617 17.3339 9.69763C17.2825 9.8191 17.2078 9.92927 17.1139 10.0219L12.3039 14.7519C12.1032 14.9198 11.8448 15.0023 11.5839 14.9819Z" fill="#EDEBEA"/>
</svg>
