<svg width="229" height="56" viewBox="0 0 229 56" fill="none" xmlns="http://www.w3.org/2000/svg">
<g clip-path="url(#clip0_1745_1554)">
<path d="M78.3492 33.864V35.6335C78.3492 37.7643 79.0409 38.9516 80.86 38.9516C82.679 38.9516 83.2076 37.3204 83.2076 35.4601C83.2076 32.3815 82.4891 31.4276 79.1628 29.0036C75.8261 26.5692 74.0422 25.0145 74.0422 20.7755C74.0422 17.0011 75.279 13.1917 80.8786 13.1958C86.6041 13.1999 87.4879 16.9702 87.4879 20.0756V21.6056H82.7451V20.1933C82.7451 18.1987 82.3817 16.9929 80.7919 16.9929C79.202 16.9929 78.8283 18.24 78.8283 20.1396C78.8283 22.163 79.2433 23.1541 81.9708 24.9959C86.6124 28.1653 88.035 30.005 88.035 34.7973C88.035 38.8607 86.4926 42.7094 80.7051 42.7094C74.9176 42.7094 73.5693 39.3335 73.5693 35.5612V33.8619H78.3534L78.3492 33.864Z" fill="#FF4800"/>
<path d="M95.7592 13.6543V42.2945H90.9752V13.6543H95.7592Z" fill="#FF4800"/>
<path d="M108.926 42.2923L105.866 31.9355H105.821L102.55 42.2923H97.5969L103.087 27.7234L97.8467 13.6521H103.133L105.99 23.1293H106.036L108.864 13.6521H113.863L108.645 27.0668L114.222 42.2923H108.926Z" fill="#FF4800"/>
<path d="M121.899 13.6543H128.535C135.116 13.6543 136.716 16.8031 136.716 22.1177V33.1002C136.716 37.4775 135.902 42.2945 128.527 42.2945H121.901V13.6543H121.899ZM126.683 38.5346H128.217C131.362 38.5346 131.843 36.666 131.843 33.701V21.7709C131.843 19.1362 131.339 17.4534 128.186 17.4534H126.683V38.5346Z" fill="#FF4800"/>
<path d="M145.07 29.4868V42.2945H140.286V13.6543H146.912C151.632 13.6543 154.417 15.399 154.417 20.5547V21.6449C154.417 26.0449 152.462 27.1661 151.26 27.6203C153.069 28.4049 154.103 29.6087 154.103 33.4945C154.103 35.9062 154.058 40.5581 154.388 42.2945H149.767C149.354 40.5643 149.443 35.8608 149.443 33.7795C149.443 30.288 148.956 29.4868 146.181 29.4868H145.07ZM145.07 25.8405H146.166C148.698 25.8405 149.629 24.9588 149.629 21.8452V20.8624C149.629 18.6489 149.133 17.3007 146.422 17.3007H145.07V25.8405Z" fill="#FF4800"/>
<path d="M169.539 29.2102H162.721V38.2311H170.58L169.975 42.2925H157.939V13.6543H169.919V17.7549H162.723V25.1509H169.541V29.2122L169.539 29.2102Z" fill="#FF4800"/>
<path d="M178.079 34.6321L176.993 42.2923H172.128L177.125 13.6521H183.883L189.07 42.2923H184.071L182.851 34.6321H178.079ZM182.285 30.5707C181.577 25.7061 180.897 21.0894 180.542 17.8518H180.367C180.233 20.2118 179.301 26.3442 178.682 30.5707H182.283H182.285Z" fill="#FF4800"/>
<path d="M207.221 31.6404C207.221 26.7738 207.279 20.7137 207.372 17.4307H207.326C206.614 22.4006 204.898 34.0025 203.554 42.2945H199.04C198.039 34.8552 196.307 22.6298 195.601 17.3915H195.508C195.601 20.7302 195.745 27.2094 195.745 32.1359V42.2945H191.411V13.6543H198.537C199.744 20.9326 200.987 29.0925 201.405 33.1064H201.45C201.956 29.0429 203.634 20.5217 204.877 13.6543H211.763V42.2945H207.219V31.6404H207.221Z" fill="#FF4800"/>
<path d="M219.318 33.864V35.6335C219.318 37.7643 220.01 38.9516 221.829 38.9516C223.648 38.9516 224.177 37.3204 224.177 35.4601C224.177 32.3815 223.458 31.4276 220.132 29.0036C216.795 26.5692 215.011 25.0145 215.011 20.7755C215.011 17.0011 216.248 13.1917 221.848 13.1958C227.573 13.1999 228.457 16.9702 228.457 20.0756V21.6056H223.714V20.1933C223.714 18.1987 223.351 16.9929 221.761 16.9929C220.171 16.9929 219.797 18.24 219.797 20.1396C219.797 22.163 220.212 23.1541 222.94 24.9959C227.582 28.1653 229.004 30.005 229.004 34.7973C229.004 38.8607 227.462 42.7094 221.674 42.7094C215.887 42.7094 214.538 39.3335 214.538 35.5612V33.8619H219.322L219.318 33.864Z" fill="#FF4800"/>
<path d="M29.7222 0.111572C28.5019 0.111572 27.6016 0.458451 27.0194 1.15014C26.4371 1.8439 26.146 2.74414 26.146 3.85291V9.83864H26.2699C26.7696 8.78561 27.4055 8.00307 28.1818 7.49101C28.9582 6.97895 30.1496 6.72292 31.7559 6.72292H34.2791V0.111572H29.718H29.7222Z" fill="#FF4800"/>
<path d="M34.2832 24.9794C31.6094 24.9835 29.4496 24.9402 27.8102 24.8431C26.1192 24.7606 24.7275 24.4901 23.6332 24.0317C22.5389 23.5754 21.7481 22.958 21.2649 22.1817C20.7797 21.4053 20.4617 20.6723 20.309 19.9786C20.1562 19.2869 20.0798 18.4692 20.0798 17.5256V0L17.9469 3.38826L9.19644 6.21285V15.591C9.19644 20.121 9.83652 24.3559 11.0465 28.314H34.2832V24.9794Z" fill="#FF4800"/>
<path d="M17.3873 40.8513C20.5237 45.1192 24.486 48.9575 29.1523 52.3954L34.2832 55.9096V40.8513H17.3853H17.3873Z" fill="#FF4800"/>
<path d="M29.4723 20.4804H34.2832V11.1704H29.4723C27.199 11.1704 26.0634 12.209 26.0634 14.2882V17.1561C26.0634 18.2649 26.3256 19.097 26.8522 19.6504C27.3787 20.2058 28.2521 20.4825 29.4703 20.4825L29.4723 20.4804Z" fill="#FF4800"/>
<path d="M24.8452 51.7512C20.7942 48.3897 17.4286 44.7537 14.7527 40.8513H10.7326C14.5565 45.2141 19.3117 48.8233 24.8452 51.7512Z" fill="#FF4800"/>
<path d="M7.04701 15.5888V13.5798L0 15.8077L1.28221 21.7645C1.77569 24.0605 2.42402 26.2409 3.2107 28.3139H8.79999C7.6334 24.2815 7.04908 20.0363 7.04908 15.5888H7.04701Z" fill="#FF4800"/>
<path d="M4.13569 38.1773C4.12124 37.2977 4.11298 35.9804 4.11298 34.2254C4.11298 32.4703 4.12124 31.1551 4.13569 30.2734H9.36365C10.6892 30.2734 11.6142 30.5646 12.1407 31.1489C12.6673 31.7332 12.9315 32.7573 12.9315 34.2254C12.9315 35.6934 12.6673 36.699 12.1346 37.2915C11.6039 37.8821 10.6768 38.1773 9.35126 38.1773H4.13569ZM6.15708 37.1718H6.20251C6.30781 36.893 6.44615 36.701 6.61546 36.5957C6.78477 36.4904 7.01189 36.4367 7.29889 36.4367H9.7828C10.1896 36.4367 10.4662 36.3273 10.6128 36.1084C10.7594 35.8896 10.8338 35.5551 10.8338 35.1029V33.3293C10.8338 32.8771 10.7594 32.5447 10.6128 32.3299C10.4662 32.1152 10.1896 32.0078 9.7828 32.0078H6.15915V37.1677L6.15708 37.1718Z" fill="#FF4800"/>
<path d="M14.1518 38.1773C14.1374 37.2977 14.1291 35.9804 14.1291 34.2254C14.1291 32.4703 14.1374 31.1551 14.1518 30.2734H22.6318C22.6545 30.6265 22.669 31.3719 22.6772 32.5096C22.6772 33.0299 22.5554 33.4552 22.3097 33.7856C22.064 34.116 21.7894 34.3266 21.4797 34.4174C22.3159 34.7416 22.733 35.3011 22.733 36.1002V38.1773H20.7012V36.5524C20.7012 35.9887 20.3998 35.7058 19.7989 35.7058H16.1753V38.1794H14.1539L14.1518 38.1773ZM16.1732 34.5991H16.2187C16.421 34.1923 16.7596 33.99 17.2345 33.99H19.6172C20.2718 33.99 20.6001 33.6596 20.6001 32.9969V32.0037H16.1732V34.6012V34.5991Z" fill="#FF4800"/>
<path d="M23.9739 38.1773C23.9594 37.2977 23.9512 35.9804 23.9512 34.2254C23.9512 32.4703 23.9594 31.1551 23.9739 30.2734H31.3698V31.8984C30.4882 31.9211 29.2741 31.9314 27.7235 31.9314H25.9953V34.0437H26.0407C26.1543 33.7877 26.2905 33.608 26.4537 33.5068C26.6147 33.4057 26.8315 33.3541 27.102 33.3541H27.7235C29.1544 33.3541 30.2796 33.3623 31.0994 33.3768V34.9233C30.2796 34.9377 29.1544 34.946 27.7235 34.946H25.9953V36.4367H27.7689C29.3195 36.4367 30.5315 36.4471 31.4049 36.4698V38.1753H23.9759L23.9739 38.1773Z" fill="#FF4800"/>
<path d="M38.8257 20.4804C40.238 20.4804 41.2435 20.1005 41.8382 19.3365C42.4328 18.5746 42.7322 17.4452 42.7322 15.9482C42.7322 14.2861 42.4762 13.0741 41.9641 12.3101C41.4521 11.5482 40.5291 11.1663 39.1994 11.1663H34.2832V20.4762H38.8257V20.4804Z" fill="#FF9D00"/>
<path d="M34.2832 55.9096L39.4142 52.3954C44.0805 48.9575 48.0428 45.1192 51.1791 40.8513H34.2832V55.9096Z" fill="#FF9D00"/>
<path d="M57.52 28.314C58.732 24.3559 59.3721 20.121 59.3721 15.591V6.21285L50.1302 3.23341L48.0737 0L48.0965 4.64364H42.152V3.68765C42.152 2.52313 41.9166 1.63735 41.4459 1.02825C40.9751 0.419145 40.1162 0.113562 38.8691 0.113562H34.2853V6.72285H40.0749C42.8726 6.72285 45.022 7.4228 46.5169 8.8227C48.0139 10.2226 48.7613 12.4876 48.7613 15.6178C48.7613 21.5478 46.1969 24.6367 41.0722 24.8865C38.5263 24.9464 36.2654 24.9774 34.2853 24.9794V28.314H57.5221H57.52Z" fill="#FF9D00"/>
<path d="M67.2037 21.7645L68.4859 15.8077L61.4389 13.5798V15.5888C61.4389 20.0363 60.8525 24.2794 59.688 28.3139H65.2773C66.064 26.2409 66.7103 24.0605 67.2058 21.7645H67.2037Z" fill="#FF9D00"/>
<path d="M43.6387 51.7512C49.1722 48.8233 53.9274 45.2141 57.7513 40.8513H53.7312C51.0573 44.7537 47.6918 48.3918 43.6387 51.7512Z" fill="#FF9D00"/>
<path d="M31.8324 38.1773L36.3377 30.2734H38.2228L42.7281 38.1773H40.3805L39.6351 36.7774H34.9275L34.1821 38.1773H31.8345H31.8324ZM38.7865 35.0719L37.3536 32.3733H37.2173L35.5572 35.456L35.5903 35.4787C35.8091 35.2082 36.1023 35.0719 36.4719 35.0719H38.7865Z" fill="#FF9D00"/>
<path d="M43.3269 38.1773C43.3124 37.2977 43.3042 35.9804 43.3042 34.2254C43.3042 32.4703 43.3124 31.1551 43.3269 30.2734H45.8562L49.0731 36.0548L49.1061 36.0093C49.069 35.617 49.1288 35.2722 49.2858 34.9708L51.939 30.2734H54.4353C54.458 31.1551 54.4683 32.4703 54.4683 34.2254C54.4683 35.9804 54.458 37.2957 54.4353 38.1773H52.4139V33.9879C52.4139 33.6183 52.4861 33.1682 52.6286 32.6335L52.5956 32.6004L49.5707 38.1773H48.2038L45.1893 32.6004L45.1563 32.6335C45.2843 33.1455 45.3483 33.5977 45.3483 33.9879V38.1773H43.3269Z" fill="#FF9D00"/>
<path d="M58.4905 38.2226C56.5558 38.1545 55.5895 37.3265 55.5895 35.7387C55.5895 35.6789 55.5936 35.6149 55.5998 35.5467H57.6315V35.7842C57.6315 36.3107 57.9288 36.575 58.5235 36.575H61.5711C61.8498 36.575 62.0542 36.5027 62.1864 36.3602C62.3185 36.2178 62.3846 36.0299 62.3846 35.7966C62.3846 35.2845 62.1058 35.0285 61.5484 35.0285H58.3748C56.6425 35.0285 55.7712 34.2108 55.7547 32.5776C55.7464 31.7951 55.7815 31.027 55.8558 30.2733C56.9398 30.2424 58.1271 30.2238 59.4175 30.2176C60.708 30.2093 61.4513 30.2135 61.6475 30.2279C62.5064 30.2651 63.1238 30.4839 63.5058 30.8824C63.8857 31.2809 64.0942 31.7662 64.1314 32.3381C64.1458 32.4578 64.1458 32.6024 64.1314 32.7676H62.1224V32.621C62.1224 32.1006 61.8354 31.8426 61.2634 31.8426H57.774V32.464C57.774 33.0442 58.125 33.3333 58.8249 33.3333H61.8725C62.2855 33.3333 62.653 33.3891 62.973 33.5026C63.2931 33.6162 63.545 33.7566 63.7287 33.9259C63.9125 34.0952 64.0612 34.2955 64.1747 34.5247C64.2883 34.7539 64.3626 34.9707 64.3998 35.173C64.437 35.3753 64.4514 35.5798 64.4452 35.7821C64.4225 36.4077 64.1995 36.9611 63.7742 37.4422C63.3488 37.9233 62.7067 38.1834 61.8498 38.2206C61.5711 38.235 61.0177 38.2433 60.1898 38.2433C59.3618 38.2433 58.794 38.235 58.4843 38.2206L58.4905 38.2226Z" fill="#FF9D00"/>
</g>
<defs>
<clipPath id="clip0_1745_1554">
<rect width="229" height="55.9095" fill="white"/>
</clipPath>
</defs>
</svg>
