<svg width="47" height="38" viewBox="0 0 47 38" fill="none" xmlns="http://www.w3.org/2000/svg">
<path d="M20.2474 0.0756836C19.4162 0.0756836 18.8029 0.311447 18.4063 0.78157C18.0096 1.2531 17.8113 1.86496 17.8113 2.61856V6.68688H17.8957C18.2361 5.97117 18.6693 5.4393 19.1981 5.09127C19.727 4.74324 20.5386 4.56922 21.6329 4.56922H23.3517V0.0756836H20.2446H20.2474Z" fill="#FF4800"/>
<path d="M23.3546 16.9778C21.5331 16.9806 20.0618 16.9511 18.945 16.8851C17.793 16.829 16.845 16.6452 16.0996 16.3336C15.3541 16.0235 14.8154 15.6039 14.4862 15.0762C14.1557 14.5486 13.9391 14.0504 13.835 13.5788C13.7309 13.1087 13.6789 12.553 13.6789 11.9117V0L12.2259 2.3029L6.26489 4.22269V10.5967C6.26489 13.6757 6.70093 16.554 7.52517 19.2442H23.3546V16.9778Z" fill="#FF4800"/>
<path d="M11.8447 27.7654C13.9812 30.6661 16.6804 33.2749 19.8592 35.6115L23.3545 38V27.7654H11.8433H11.8447Z" fill="#FF4800"/>
<path d="M20.0771 13.9198H23.3544V7.59204H20.0771C18.5285 7.59204 17.7549 8.29793 17.7549 9.7111V11.6604C17.7549 12.414 17.9335 12.9795 18.2922 13.3556C18.6509 13.7331 19.2458 13.9212 20.0757 13.9212L20.0771 13.9198Z" fill="#FF4800"/>
<path d="M16.9251 35.1737C14.1654 32.889 11.8727 30.4177 10.0498 27.7654H7.31128C9.91623 30.7307 13.1555 33.1837 16.9251 35.1737Z" fill="#FF4800"/>
<path d="M4.80058 10.5952V9.22974L0 10.744L0.873473 14.7926C1.20964 16.3532 1.6513 17.8351 2.1872 19.2441H5.99475C5.20005 16.5033 4.80199 13.618 4.80199 10.5952H4.80058Z" fill="#FF4800"/>
<path d="M2.81723 25.948C2.80738 25.3501 2.80176 24.4548 2.80176 23.2619C2.80176 22.0691 2.80738 21.1752 2.81723 20.5759H6.37864C7.28165 20.5759 7.91178 20.7738 8.27046 21.171C8.62913 21.5681 8.80917 22.2642 8.80917 23.2619C8.80917 24.2597 8.62913 24.9432 8.26624 25.3459C7.90475 25.7473 7.27321 25.948 6.3702 25.948H2.81723ZM4.19425 25.2645H4.2252C4.29693 25.0751 4.39117 24.9446 4.50651 24.873C4.62184 24.8014 4.77657 24.7649 4.97208 24.7649H6.66417C6.94126 24.7649 7.12974 24.6906 7.2296 24.5418C7.32947 24.393 7.38011 24.1657 7.38011 23.8584V22.6529C7.38011 22.3456 7.32947 22.1196 7.2296 21.9737C7.12974 21.8277 6.94126 21.7547 6.66417 21.7547H4.19566V25.2617L4.19425 25.2645Z" fill="#FF4800"/>
<path d="M9.64047 25.948C9.63063 25.3501 9.625 24.4548 9.625 23.2619C9.625 22.0691 9.63063 21.1752 9.64047 20.5759H15.4172C15.4327 20.8159 15.4425 21.3225 15.4482 22.0958C15.4482 22.4494 15.3652 22.7385 15.1978 22.963C15.0304 23.1876 14.8433 23.3307 14.6323 23.3925C15.202 23.6128 15.4861 23.9931 15.4861 24.5362V25.948H14.1021V24.8435C14.1021 24.4604 13.8967 24.2681 13.4874 24.2681H11.0189V25.9494H9.64188L9.64047 25.948ZM11.0175 23.516H11.0484C11.1863 23.2395 11.417 23.102 11.7405 23.102H13.3636C13.8095 23.102 14.0332 22.8774 14.0332 22.427V21.7519H11.0175V23.5174V23.516Z" fill="#FF4800"/>
<path d="M16.3316 25.948C16.3218 25.3501 16.3162 24.4548 16.3162 23.2619C16.3162 22.0691 16.3218 21.1752 16.3316 20.5759H21.3699V21.6804C20.7693 21.6958 19.9423 21.7028 18.8859 21.7028H17.7087V23.1385H17.7396C17.817 22.9644 17.9098 22.8423 18.0209 22.7736C18.1306 22.7048 18.2783 22.6697 18.4626 22.6697H18.8859C19.8607 22.6697 20.6273 22.6753 21.1857 22.6852V23.7363C20.6273 23.7461 19.8607 23.7517 18.8859 23.7517H17.7087V24.7649H18.9169C19.9732 24.7649 20.7989 24.772 21.3938 24.7874V25.9466H16.333L16.3316 25.948Z" fill="#FF4800"/>
<path d="M26.4492 13.9199C27.4113 13.9199 28.0962 13.6617 28.5013 13.1424C28.9064 12.6246 29.1104 11.857 29.1104 10.8395C29.1104 9.70982 28.936 8.88605 28.5871 8.36681C28.2383 7.84898 27.6096 7.58936 26.7038 7.58936H23.3547V13.9171H26.4492V13.9199Z" fill="#FF9D00"/>
<path d="M23.3547 38L26.85 35.6115C30.0289 33.2749 32.728 30.6661 34.8646 27.7654H23.3547V38Z" fill="#FF9D00"/>
<path d="M39.184 19.2442C40.0096 16.554 40.4456 13.6757 40.4456 10.5967V4.22269L34.1499 2.19765L32.749 0L32.7644 3.15614H28.7149V2.50639C28.7149 1.7149 28.5546 1.11286 28.2339 0.69887C27.9132 0.284881 27.3281 0.0771844 26.4785 0.0771844H23.356V4.56932H27.2999C29.2058 4.56932 30.6701 5.04506 31.6884 5.99653C32.7082 6.948 33.2173 8.48748 33.2173 10.615C33.2173 14.6454 31.4704 16.7448 27.9793 16.9146C26.245 16.9553 24.7048 16.9764 23.356 16.9778V19.2442H39.1854H39.184Z" fill="#FF9D00"/>
<path d="M45.7808 14.7926L46.6542 10.744L41.8537 9.22974V10.5952C41.8537 13.618 41.4542 16.5019 40.6609 19.2441H44.4684C45.0043 17.8351 45.4446 16.3532 45.7822 14.7926H45.7808Z" fill="#FF9D00"/>
<path d="M29.7278 35.1737C33.4974 33.1837 36.7367 30.7307 39.3416 27.7654H36.603C34.7815 30.4177 32.4889 32.8904 29.7278 35.1737Z" fill="#FF9D00"/>
<path d="M21.6851 25.948L24.7542 20.5759H26.0384L29.1075 25.948H27.5082L27.0004 24.9965H23.7935L23.2857 25.948H21.6865H21.6851ZM26.4223 23.8373L25.4462 22.0031H25.3534L24.2225 24.0983L24.245 24.1138C24.3941 23.9299 24.5938 23.8373 24.8456 23.8373H26.4223Z" fill="#FF9D00"/>
<path d="M29.5155 25.948C29.5056 25.3501 29.5 24.4548 29.5 23.2619C29.5 22.0691 29.5056 21.1752 29.5155 20.5759H31.2385L33.4299 24.5053L33.4524 24.4744C33.4271 24.2078 33.4679 23.9734 33.5748 23.7686L35.3822 20.5759H37.0828C37.0982 21.1752 37.1053 22.0691 37.1053 23.2619C37.1053 24.4548 37.0982 25.3487 37.0828 25.948H35.7057V23.1006C35.7057 22.8494 35.755 22.5434 35.852 22.18L35.8295 22.1575L33.7689 25.948H32.8378L30.7842 22.1575L30.7617 22.18C30.8489 22.528 30.8925 22.8353 30.8925 23.1006V25.948H29.5155Z" fill="#FF9D00"/>
<path d="M39.8451 25.9788C38.5272 25.9325 37.8689 25.3698 37.8689 24.2906C37.8689 24.2499 37.8717 24.2064 37.8759 24.1601H39.26V24.3215C39.26 24.6793 39.4625 24.8589 39.8676 24.8589H41.9437C42.1336 24.8589 42.2728 24.8098 42.3628 24.713C42.4529 24.6162 42.4979 24.4885 42.4979 24.3299C42.4979 23.9818 42.308 23.8078 41.9282 23.8078H39.7663C38.5862 23.8078 37.9927 23.2521 37.9814 22.142C37.9758 21.6102 37.9997 21.0881 38.0503 20.5759C38.7888 20.5549 39.5976 20.5422 40.4767 20.538C41.3558 20.5324 41.8621 20.5352 41.9957 20.545C42.5809 20.5703 43.0014 20.7191 43.2616 20.9899C43.5204 21.2607 43.6625 21.5905 43.6878 21.9793C43.6977 22.0607 43.6977 22.1589 43.6878 22.2712H42.3192V22.1715C42.3192 21.8179 42.1237 21.6425 41.7341 21.6425H39.357V22.0649C39.357 22.4592 39.5961 22.6557 40.073 22.6557H42.1491C42.4304 22.6557 42.6807 22.6936 42.8987 22.7708C43.1168 22.8479 43.2884 22.9434 43.4135 23.0584C43.5387 23.1735 43.64 23.3096 43.7174 23.4654C43.7947 23.6212 43.8454 23.7685 43.8707 23.9061C43.896 24.0436 43.9058 24.1825 43.9016 24.3201C43.8862 24.7453 43.7342 25.1214 43.4445 25.4483C43.1547 25.7753 42.7173 25.9522 42.1336 25.9774C41.9437 25.9872 41.5667 25.9929 41.0027 25.9929C40.4387 25.9929 40.0519 25.9872 39.8409 25.9774L39.8451 25.9788Z" fill="#FF9D00"/>
</svg>
