<svg width="32" height="32" viewBox="0 0 32 32" fill="none" xmlns="http://www.w3.org/2000/svg">
<g clip-path="url(#clip0_2728_3138)">
<path d="M5 7V23C5 23.5304 5.21071 24.0391 5.58579 24.4142C5.96086 24.7893 6.46957 25 7 25H27C27.2652 25 27.5196 24.8946 27.7071 24.7071C27.8946 24.5196 28 24.2652 28 24V10C28 9.73478 27.8946 9.48043 27.7071 9.29289C27.5196 9.10536 27.2652 9 27 9H7C6.46957 9 5.96086 8.78929 5.58579 8.41421C5.21071 8.03914 5 7.53043 5 7ZM5 7C5 6.46957 5.21071 5.96086 5.58579 5.58579C5.96086 5.21071 6.46957 5 7 5H24" stroke="white" stroke-width="2" stroke-linecap="round" stroke-linejoin="round"/>
<path d="M22.5 18C23.3284 18 24 17.3284 24 16.5C24 15.6716 23.3284 15 22.5 15C21.6716 15 21 15.6716 21 16.5C21 17.3284 21.6716 18 22.5 18Z" fill="white"/>
</g>
<defs>
<clipPath id="clip0_2728_3138">
<rect width="32" height="32" fill="white"/>
</clipPath>
</defs>
</svg>
