<svg width="34" height="34" viewBox="0 0 34 34" fill="none" xmlns="http://www.w3.org/2000/svg">
<path d="M32.2641 9.03318C31.8968 7.66764 30.8202 6.59119 29.4548 6.2235C26.9605 5.54102 16.983 5.54102 16.983 5.54102C16.983 5.54102 7.00592 5.54102 4.5116 6.19762C3.17252 6.56493 2.06962 7.66783 1.70231 9.03318C1.0459 11.5273 1.0459 16.6998 1.0459 16.6998C1.0459 16.6998 1.0459 21.8984 1.70231 24.3664C2.07001 25.7318 3.14626 26.8082 4.5118 27.1759C7.03219 27.8586 16.9834 27.8586 16.9834 27.8586C16.9834 27.8586 26.9605 27.8586 29.4548 27.202C30.8203 26.8345 31.8968 25.758 32.2645 24.3927C32.9207 21.8984 32.9207 16.7261 32.9207 16.7261C32.9207 16.7261 32.947 11.5273 32.2641 9.03318ZM13.8064 21.4783V11.9213L22.1032 16.6998L13.8064 21.4783Z" fill="white"/>
</svg>
